<svg version="1.1" id="Layer_1" xmlns:x="ns_extend;" xmlns:i="ns_ai;" xmlns:graph="ns_graphs;" xmlns="http://www.w3.org/2000/svg" xmlns:xlink="http://www.w3.org/1999/xlink" x="0px" y="0px" viewBox="0 0 193 65" style="enable-background:new 0 0 193 65;" xml:space="preserve">
 <style type="text/css">
  .st0{fill-rule:evenodd;clip-rule:evenodd;fill:#FFFFFF;}
	.st1{fill-rule:evenodd;clip-rule:evenodd;fill:#E30613;}
	.st2{fill-rule:evenodd;clip-rule:evenodd;fill:#152D6D;}
 </style>
 <metadata>
  <sfw xmlns="ns_sfw;">
   <slices>
   </slices>
   <sliceSourceBounds bottomLeftOrigin="true" height="65" width="193" x="53.8" y="-215.8">
   </sliceSourceBounds>
  </sfw>
 </metadata>
 <g>
  <path class="st0" d="M188.8,0H25.9c-7,0-13.1,5-14.6,11.9L0,65h167c7,0,13.1-5,14.6-11.9L193,0H188.8">
  </path>
  <path class="st1" d="M156.1,12.8c0,0-6.7,32.4-8.2,39.3c-1.5,6.9-6.4,9.2-6.4,9.2h24.6c5.4,0,10-3.8,11.1-9.1l10.3-48.5h-20.2
		C161.9,3.7,157.3,7.5,156.1,12.8">
  </path>
  <path class="st2" d="M158.1,3.7H27.1c-5.4,0-10,3.8-11.1,9.1L5.7,61.3h126.6c5.4,0,10-3.8,11.1-9.1l8.3-39.3
		C153.2,6,158.1,3.7,158.1,3.7">
  </path>
  <path class="st0" d="M42.1,21.2h4.5c2.8,0,4.5,1.5,4.5,3.7c0,2.9-2.6,4.8-7.3,4.8h-3.4C40.3,29.7,42.1,21.2,42.1,21.2z M33.9,14.9
		l-3.9,0c0,0,3.3,2.3,2.7,5.1C32.1,23.1,25.9,52,25.9,52h15c5.3,0,9.4-0.4,12.7-2.8c3-2.1,4.7-5.4,4.7-9c0-3.9-2.6-6.7-7.3-7.7
		c6-0.5,9.7-4.5,9.7-9.5c0-3.3-1.8-5.9-4.9-7.3c-1.7-0.8-4.3-1-8-1C47.9,14.9,33.9,14.9,33.9,14.9z M39,35.8h4.8c3.3,0,5,1.3,5,4
		c0,3.4-2.5,5.4-7.4,5.4H37L39,35.8z M117.2,22.1l1.8,14.9h-10L117.2,22.1z M112.2,14.9L90.2,52h10.5l4.5-7.9h14.6l1,7.9h9.9
		c0,0-4.9-30.1-5.3-32.5c-0.3-2.4,2.5-4.6,2.5-4.6L112.2,14.9L112.2,14.9z M93.2,22.9c-2.6-1.6-4.6-2.6-8-2.6
		c-9.1,0-14.2,5.5-14.2,14.4c0,5.8,4,9.6,10.6,9.6c2.9,0,7.8-1.6,10.8-3.1l-5.2,8.9c-1.9,1.3-4.8,1.8-7.8,1.9
		c-11.8,0.2-18.6-6.7-18.6-17.5c0-5.7,2.2-11.3,5.8-15c4.5-4.6,9.9-6.5,17.4-6.5c4,0,9.2,0.8,13.6,2.7L93.2,22.9">
  </path>
 </g>
</svg>